<?xml version="1.0" encoding="UTF-8" standalone="no"?>
<svg width="59px" height="60px" viewBox="0 0 59 60" version="1.1" xmlns="http://www.w3.org/2000/svg" xmlns:xlink="http://www.w3.org/1999/xlink" xmlns:sketch="http://www.bohemiancoding.com/sketch/ns">
    <!-- Generator: Sketch 3.0 (7574) - http://www.bohemiancoding.com/sketch -->
    <title>Skype 2</title>
    <description>Created with Sketch.</description>
    <defs></defs>
    <g id="Page-1" stroke="none" stroke-width="1" fill="none" fill-rule="evenodd" sketch:type="MSPage">
        <g id="Skype" sketch:type="MSLayerGroup">
            <g id="Page-1" sketch:type="MSShapeGroup">
                <g id="Skype">
                    <g id="Group">
                        <path d="M-0.43854828,30 C-0.43854828,13.4314567 12.791812,0 29.1122903,0 C45.4327687,0 58.663129,13.4314567 58.663129,30 C58.663129,46.5685433 45.4327687,60 29.1122903,60 C12.791812,60 -0.43854828,46.5685433 -0.43854828,30 L-0.43854828,30 Z" id="Shape" fill="#ffffff"></path>
                        <path d="M44.4527125,30.5806278 C44.4527125,22.1349108 37.7692666,15.2873644 29.5264919,15.2873644 C28.7072426,15.2873644 27.9040559,15.3566795 27.122455,15.4887705 C25.7210843,14.5481778 24.0533179,14 22.2584484,14 C17.3367313,14 13.3518431,18.1071154 13.3518431,23.1748334 C13.3518431,25.0187456 13.87873,26.7317439 14.7860371,28.170032 C14.6638227,28.9558428 14.6013505,29.7605518 14.6013505,30.5803663 C14.6013505,39.0273912 21.281368,45.8742183 29.5264284,45.8742183 C30.4569721,45.8742183 31.3629459,45.7809699 32.2434611,45.6170985 C33.6116276,46.4913188 35.2232071,47 36.9508428,47 C41.8712902,47 45.8577656,42.8918383 45.8577656,37.8246435 C45.8575751,35.9091275 45.288913,34.1281873 44.3120866,32.6558955 C44.4013507,31.9758229 44.4527125,31.2844376 44.4527125,30.5806278 L44.4527125,30.5806278 Z M21.9197376,39.5709799 C19.6468518,37.3624959 20.5598827,34.8435426 22.411619,34.7155126 C24.2623384,34.5875484 25.3735835,36.8874166 26.3613499,37.5271717 C27.3479088,38.1645583 31.101777,39.6167049 33.084618,37.2700591 C35.2437484,34.7155126 31.6487566,33.3936328 29.0136326,32.9934898 C25.2512487,32.4167629 20.5010349,30.3096634 20.8705814,26.1573082 C21.240255,22.0075847 24.2757476,19.8798924 27.4703072,19.5797523 C31.5424366,19.197044 34.1933847,20.2183889 36.2901719,22.0706128 C38.7146894,24.2107395 37.4028151,26.6032419 35.8580916,26.7957474 C34.319469,26.9871345 32.5913386,23.2756471 29.1985647,23.219856 C25.701568,23.1630123 23.3381226,26.9871345 27.6551758,28.0742049 C31.9744533,29.1600911 36.5999173,29.6062223 38.2656411,33.6939045 C39.9325088,37.7819816 35.6757015,42.1234211 30.9242167,42.3796784 C26.1766084,42.6356725 23.9549444,41.5482731 21.9197376,39.5709799 L21.9197376,39.5709799 Z" id="Path" fill="#94bbc8"></path>
                    </g>
                </g>
            </g>
        </g>
    </g>
</svg>