<?xml version="1.0" encoding="UTF-8" standalone="no"?>
<svg width="59px" height="60px" viewBox="0 0 59 60" version="1.1" xmlns="http://www.w3.org/2000/svg" xmlns:xlink="http://www.w3.org/1999/xlink" xmlns:sketch="http://www.bohemiancoding.com/sketch/ns">
    <!-- Generator: Sketch 3.0 (7574) - http://www.bohemiancoding.com/sketch -->
    <title>Mail 2</title>
    <description>Created with Sketch.</description>
    <defs></defs>
    <g id="Page-1" stroke="none" stroke-width="1" fill="none" fill-rule="evenodd" sketch:type="MSPage">
        <g id="Mail" sketch:type="MSLayerGroup">
            <g id="Page-1" sketch:type="MSShapeGroup">
                <g id="Mail">
                    <g id="Group">
                        <path d="M0.224580688,30 C0.224580688,13.4314567 13.454941,0 29.7754193,0 C46.0958976,0 59.3262579,13.4314567 59.3262579,30 C59.3262579,46.5685433 46.0958976,60 29.7754193,60 C13.454941,60 0.224580688,46.5685433 0.224580688,30 L0.224580688,30 Z" id="Shape" fill="#ffd300"></path>
                        <path d="M35.0384324,31.6384006 L47.2131148,40.5764264 L47.2131148,20 L35.0384324,31.6384006 L35.0384324,31.6384006 Z M13.7704918,20 L13.7704918,40.5764264 L25.9449129,31.6371491 L13.7704918,20 L13.7704918,20 Z M30.4918033,35.9844891 L27.5851037,33.2065217 L13.7704918,42 L47.2131148,42 L33.3981762,33.2065217 L30.4918033,35.9844891 L30.4918033,35.9844891 Z M46.2098361,20 L14.7737705,20 L30.4918033,32.4549304 L46.2098361,20 L46.2098361,20 Z" id="Shape" fill="#ffffff"></path>
                    </g>
                </g>
            </g>
        </g>
    </g>
</svg>